<svg width="256" height="256" viewBox="0 0 256 256" fill="none" xmlns="http://www.w3.org/2000/svg">
<path fill-rule="evenodd" clip-rule="evenodd" d="M36.4727 36.4727C21.5 51.4455 21.5 75.5436 21.5 123.74V132.26C21.5 180.456 21.5 204.555 36.4727 219.527C51.4455 234.5 75.5436 234.5 123.74 234.5H132.26C180.456 234.5 204.555 234.5 219.527 219.527C234.5 204.555 234.5 180.456 234.5 132.26V123.74C234.5 75.5436 234.5 51.4455 219.527 36.4727C204.555 21.5 180.456 21.5 132.26 21.5H123.74C75.5436 21.5 51.4455 21.5 36.4727 36.4727ZM148.407 110.471C148.407 110.471 148.578 110.59 147.275 112.251C145.971 113.911 143.363 116.521 142.06 117.709L114.92 144.047C109.112 149.86 109.23 153.42 115.986 158.284C121.755 162.397 127.576 166.3 133.45 170.238C136.386 172.206 139.335 174.183 142.297 176.199C142.977 176.663 143.67 177.143 144.37 177.628C152.819 183.483 162.435 190.148 166.593 178.097C167.741 174.612 168.612 171.042 169.201 167.42L169.225 167.29L169.225 167.288C171.113 156.891 173 146.494 174.653 135.98C176.905 121.149 179.038 106.319 180.935 91.3697C181.882 84.0138 177.971 80.6918 170.623 82.4714C167.59 83.1852 164.618 84.1372 161.735 85.3189L84.3415 117.945C76.9933 121.03 69.6452 124.352 62.4156 127.911C60.6378 128.861 58.386 131.471 58.5045 133.25C58.623 135.03 61.112 137.047 63.1267 137.877C66.7101 139.329 70.4778 140.474 74.2528 141.621C75.7218 142.067 77.1919 142.514 78.6527 142.979C82.6192 144.339 86.8603 144.692 90.997 144.009C95.1335 143.326 99.0363 141.627 102.356 139.064C112.193 131.945 122.268 125.301 132.342 118.658C134.562 117.157 136.471 115.968 138.349 114.8L138.349 114.8C140.478 113.474 142.567 112.174 145.023 110.471C145.521 110.222 145.939 110.001 146.292 109.814L146.292 109.814C147.617 109.113 148.033 108.893 148.407 109.455V110.471Z" fill="#353535"/>
</svg>
