<svg width="256" height="256" viewBox="0 0 256 256" fill="none" xmlns="http://www.w3.org/2000/svg">
<path fill-rule="evenodd" clip-rule="evenodd" d="M21.5 123.733C21.5 75.5488 21.5 51.4664 36.4832 36.4766C51.4664 21.5 75.5554 21.5 123.74 21.5H132.273C180.451 21.5 204.534 21.5 219.523 36.4832C234.5 51.4664 234.5 75.5554 234.5 123.74V132.273C234.5 180.451 234.5 204.54 219.517 219.523C204.534 234.5 180.445 234.5 132.26 234.5H123.74C75.5487 234.5 51.4664 234.5 36.4766 219.517C21.5 204.534 21.5 180.445 21.5 132.26V123.733ZM128 127C132.995 127.016 137.944 126.057 142.561 124.176C147.178 122.295 151.372 119.53 154.901 116.041C158.428 112.553 161.224 108.414 163.128 103.859C165.032 99.3043 166.008 94.4239 166 89.4967C166.017 84.5693 165.044 79.6874 163.14 75.1326C161.235 70.5778 158.435 66.4403 154.901 62.9588C151.372 59.4699 147.178 56.7052 142.561 54.8244C137.944 52.9435 132.995 51.9836 128 52.0002C123.005 51.9836 118.056 52.9435 113.439 54.8244C108.822 56.7052 104.628 59.4699 101.099 62.9588C97.5655 66.4403 94.7654 70.5778 92.8605 75.1326C90.9555 79.6874 89.9834 84.5693 90.0002 89.4967C89.9825 94.4252 90.9542 99.3083 92.8592 103.864C94.7642 108.42 97.5647 112.559 101.099 116.041C108.251 123.051 117.92 126.99 128 127ZM115.841 77.4097C117.433 75.8266 119.327 74.5695 121.413 73.7108C123.5 72.8518 125.739 72.4083 128 72.4058C132.784 72.4058 137.097 74.2886 140.16 77.4111C143.318 80.527 145.233 84.7698 145.233 89.4105C145.238 91.6424 144.791 93.8528 143.919 95.9121C143.046 97.9714 141.766 99.8383 140.154 101.403C136.996 104.519 132.696 106.409 128 106.409C125.736 106.425 123.492 105.99 121.403 105.13C119.313 104.269 117.421 103.002 115.84 101.403C114.234 99.8318 112.96 97.9627 112.089 95.9034C111.219 93.844 110.769 91.6352 110.767 89.4039C110.767 84.7791 112.68 80.5251 115.841 77.4097ZM167.995 127.228L179.2 142.389C179.449 142.761 179.549 143.214 179.478 143.656C179.407 144.098 179.17 144.497 178.816 144.772C169.596 152.221 158.789 157.473 147.22 160.128L170.778 201.423C171.443 202.568 170.59 204 169.246 204H146.165C145.493 204 144.828 203.618 144.532 202.949L128.065 166.333L111.599 202.949C111.31 203.618 110.637 204 109.965 204H86.8917C86.5882 203.997 86.2903 203.918 86.0253 203.771C85.7603 203.623 85.5367 203.412 85.3749 203.156C85.213 202.901 85.1182 202.609 85.099 202.307C85.0799 202.005 85.137 201.704 85.2652 201.43L108.816 160.128C97.4237 157.457 86.5086 152.403 77.1259 144.772C76.7853 144.484 76.5664 144.079 76.5128 143.637C76.4592 143.195 76.575 142.75 76.8369 142.389L87.9402 127.228C88.0941 127.029 88.2867 126.863 88.5066 126.741C88.7264 126.618 88.9689 126.541 89.2194 126.514C89.4699 126.487 89.7233 126.511 89.9643 126.584C90.2053 126.657 90.429 126.778 90.6219 126.94C101.154 135.809 114.085 141.626 127.971 141.626C141.857 141.626 154.782 135.91 165.32 126.94C166.181 126.27 167.323 126.364 167.995 127.228Z" fill="gray"/>
</svg>
