<svg width="256" height="256" viewBox="0 0 256 256" fill="none" xmlns="http://www.w3.org/2000/svg">
<path fill-rule="evenodd" clip-rule="evenodd" d="M36.4727 36.4727C21.5 51.4455 21.5 75.5436 21.5 123.74V132.26C21.5 180.456 21.5 204.555 36.4727 219.527C51.4455 234.5 75.5436 234.5 123.74 234.5H132.26C180.456 234.5 204.555 234.5 219.527 219.527C234.5 204.555 234.5 180.456 234.5 132.26V123.74C234.5 75.5436 234.5 51.4455 219.527 36.4727C204.555 21.5 180.456 21.5 132.26 21.5H123.74C75.5436 21.5 51.4455 21.5 36.4727 36.4727ZM58 86.5C59.145 141.779 86.6226 175 134.797 175H137.528V143.374C155.23 145.146 168.615 158.168 173.987 175H199C192.131 149.841 174.075 135.932 162.802 130.617C174.075 124.061 189.928 108.116 193.715 86.5H170.992C166.06 104.041 151.442 119.986 137.528 121.492V86.5H114.805V147.803C100.714 144.26 82.9238 127.074 82.1312 86.5H58Z" fill="#353535"/>
</svg>
