<svg width="256" height="256" viewBox="0 0 256 256" fill="none" xmlns="http://www.w3.org/2000/svg">
<path fill-rule="evenodd" clip-rule="evenodd" d="M36.4727 36.4727C21.5 51.4455 21.5 75.5436 21.5 123.74V132.26C21.5 180.456 21.5 204.555 36.4727 219.527C51.4455 234.5 75.5436 234.5 123.74 234.5H132.26C180.456 234.5 204.555 234.5 219.527 219.527C234.5 204.555 234.5 180.456 234.5 132.26V123.74C234.5 75.5436 234.5 51.4455 219.527 36.4727C204.555 21.5 180.456 21.5 132.26 21.5H123.74C75.5436 21.5 51.4455 21.5 36.4727 36.4727ZM164.463 76.68C173.486 79.6505 181.035 85.9132 185.581 94.2001C197.8 115.586 202.958 140.234 200.332 164.68C189.317 172.785 176.998 178.98 163.898 183C160.661 179.305 157.949 175.186 155.838 170.76C156.456 169.859 158.636 168.959 161.05 167.962C163.354 167.011 165.87 165.971 167.445 164.76C168.09 163.88 165.51 162.2 164.785 162.2C153.319 167.533 140.812 170.298 128.15 170.298C115.488 170.298 102.981 167.533 91.515 162.2C90.709 162.44 88.2102 163.88 88.855 164.76C92.4818 166.866 96.2842 168.66 100.22 170.12C98.6325 175.002 95.8652 179.424 92.1599 183C79.0848 178.98 66.7924 172.785 55.807 164.68C52.9257 140.344 57.8025 115.723 69.7516 94.28C74.2787 85.9119 81.8656 79.5845 90.9507 76.6C96.172 74.8058 101.579 73.5982 107.072 73C108.463 75.4411 109.727 77.951 110.86 80.52C121.892 78.8405 133.118 78.8405 144.15 80.52C145.239 77.9445 146.477 75.4337 147.858 73C153.528 73.5186 159.108 74.7553 164.463 76.68ZM93.7306 143.351C96.3586 146.005 99.9379 147.518 103.686 147.56C107.38 147.54 110.919 146.091 113.553 143.522C116.188 140.952 117.708 137.465 117.792 133.8C117.814 131.944 117.465 130.103 116.767 128.381C116.068 126.66 115.034 125.092 113.723 123.769C112.412 122.445 110.85 121.392 109.128 120.67C107.405 119.948 105.556 119.57 103.686 119.56C99.9934 119.601 96.4621 121.07 93.843 123.655C91.224 126.239 89.7237 129.735 89.661 133.4C89.6395 137.12 91.1026 140.698 93.7306 143.351ZM142.07 143.408C144.713 146.046 148.3 147.539 152.049 147.56V147.48C155.749 147.48 159.301 146.039 161.939 143.464C164.577 140.891 166.092 137.391 166.155 133.72C166.177 131.868 165.827 130.03 165.128 128.313C164.428 126.596 163.393 125.034 162.081 123.717C160.769 122.4 159.207 121.354 157.485 120.64C155.763 119.928 153.916 119.56 152.049 119.56C148.322 119.56 144.746 121.024 142.104 123.632C139.46 126.24 137.964 129.781 137.943 133.48C137.943 137.2 139.427 140.77 142.07 143.408Z" fill="#353535"/>
</svg>
